<svg id="Capa_1" data-name="Capa 1" xmlns="http://www.w3.org/2000/svg" viewBox="0 0 100 45"><defs><style>.cls-1{fill:#fff;}.cls-2{fill:#6acddb;}</style></defs><path class="cls-1" d="M0,31.18v-.11a13.1,13.1,0,0,0,3.19,0v.11s-.8.28-.52.84L7.35,42.61l3-6.69s.52-1.12,1.6-3.91c0,0,.29-.54-.53-.83v-.11a6.24,6.24,0,0,0,2.28,0v.11a1.58,1.58,0,0,0-1,.92S9.72,38.23,7,44.67H6.72s-1.65-3.8-2.1-4.78c0,0-1.9-4.22-2.19-4.81L1.25,32.42S.68,31.37,0,31.18Z"/><path class="cls-1" d="M23.89,43.1s-1.36-2.75-2.76-5.92c0,0-2.26-5.13-2.67-6.14H18.2s-2.91,6.7-3.56,8c0,0-1.45,3.24-2.09,4.39,0,0-.46.95-1.07,1.11v.08a8.4,8.4,0,0,1,2.24,0v-.08s-.64-.26-.57-.74c0,0,.32-.87.63-1.59l.81-1.9h6.32s1,2,1.62,3.44c0,0,.24.48-.53.83v.08a19.23,19.23,0,0,1,3.22,0V44.6S24.56,44.47,23.89,43.1Zm-9-3.31,2.9-6.64,2.94,6.66Z"/><path class="cls-1" d="M26.18,31.17v-.11a10.26,10.26,0,0,0,2.07.09S33.84,37.9,37.7,42.4c0,0-.08-1.23-.1-4.32,0,0,0-3.17-.12-5.5a2.89,2.89,0,0,0-.17-1,.83.83,0,0,0-.46-.36v-.11a4.37,4.37,0,0,0,2,0v.11a.8.8,0,0,0-.53.58,6.05,6.05,0,0,0-.1,1.34s-.12,2.88-.09,6.24V45h-.35L27.38,32.5l.07,4.25v5.61l.08,1.35a1,1,0,0,0,.61.86v.11a5.27,5.27,0,0,0-1.94,0V44.6a1,1,0,0,0,.6-.89,13.1,13.1,0,0,1,.08-1.4V33.55a11.08,11.08,0,0,0-.08-1.73A1,1,0,0,0,26.18,31.17Z"/><path class="cls-1" d="M42.08,31.89a.9.9,0,0,0-.59-.71v-.11a6.21,6.21,0,0,0,2.06.08,2.42,2.42,0,0,0,.71-.08v.11a.86.86,0,0,0-.59.67V42.46A11.71,11.71,0,0,0,43.75,44a.9.9,0,0,0,.54.54v.1a10.47,10.47,0,0,0-2.74,0v-.09a1,1,0,0,0,.59-.86V34.34S42.13,32.33,42.08,31.89Z"/><path class="cls-1" d="M57.83,35.37a5.24,5.24,0,0,0-1.65-2.63,9.05,9.05,0,0,0-5-1.7c-1.33-.07-4.06.06-4.06.06v.1c.5,0,.56.54.56.54,0,.2.07,1.79.07,1.79v10.4a.64.64,0,0,1-.55.53v.1c2.1.1,3.83,0,3.83,0a8.59,8.59,0,0,0,3.75-.93,5.81,5.81,0,0,0,3.07-3.87A8.18,8.18,0,0,0,57.83,35.37Zm-1.95,5.74s-1,3.44-6.52,3.07V31.57s4-.43,5.82,1.93a5.6,5.6,0,0,1,1.25,4A8.18,8.18,0,0,1,55.88,41.11Z"/><path class="cls-1" d="M74,35.09a7.17,7.17,0,0,0-9.44-3.38,7.09,7.09,0,0,0-3.45,3.38,7.36,7.36,0,0,0,0,5.46,6.81,6.81,0,0,0,6.48,4.12A6.59,6.59,0,0,0,74,40.6,6.82,6.82,0,0,0,74,35.09ZM72.42,40.6a5.33,5.33,0,0,1-4.84,3.5,5.21,5.21,0,0,1-4.83-3.45,8.27,8.27,0,0,1,.12-5.88,5.4,5.4,0,0,1,4.71-3.11,5.14,5.14,0,0,1,4.89,3.43A8,8,0,0,1,72.42,40.6Z"/><path class="cls-1" d="M98.87,43.1s-1.35-2.75-2.76-5.92c0,0-2.27-5.13-2.67-6.14h-.32s-2.89,6.7-3.55,8c0,0-1.46,3.24-2.09,4.39,0,0-.47.95-1.08,1.11v.08a8.25,8.25,0,0,1,2.22,0v-.08s-.64-.26-.56-.74c0,0,.33-.87.63-1.59l.81-1.9h6.32s.94,2,1.49,3.41c0,0,.25.48-.51.82v.08a19,19,0,0,1,3.2,0v-.08S99.49,44.47,98.87,43.1Zm-9-3.31,2.9-6.64,2.94,6.66Z"/><path class="cls-1" d="M84.86,33.8l.08-.08-.17-1.63a3.77,3.77,0,0,0-1.85-.89,6.24,6.24,0,0,0-2.51,0,3.66,3.66,0,0,0-2.15,1.3,3.45,3.45,0,0,0-.63,1.68,3,3,0,0,0,.59,2.14,5,5,0,0,0,2.16,1.42s1.8.77,2.36,1.12a3.17,3.17,0,0,1,1.58,1.92A3,3,0,0,1,83.83,43a2.84,2.84,0,0,1-2.27,1.11,3.94,3.94,0,0,1-2.5-.78,5.43,5.43,0,0,1-1.59-1.91l-.16.07.29,1.9a5.69,5.69,0,0,0,3.91,1.23,4.85,4.85,0,0,0,3.21-1.36,3.41,3.41,0,0,0,1-2.31,3.63,3.63,0,0,0-1.14-2.82,7.15,7.15,0,0,0-2.66-1.46,10.9,10.9,0,0,1-2.28-1.23,2.1,2.1,0,0,1-.51-2.71,2.61,2.61,0,0,1,2.75-1.14A3.51,3.51,0,0,1,84.86,33.8Z"/><path class="cls-2" d="M42.49,18.14s-8.41-.57-8.26-13c0,0,11.68,3.61,9.52,10.76a9,9,0,0,0-7.5-8.11S34.73,14.73,42.49,18.14ZM57.26,18s8.4-.56,8.26-13c0,0-11.69,3.6-9.52,10.75a9,9,0,0,1,7.5-8.1S64.91,14.52,57.21,18Zm-6.2,3.68S60.34,14.28,50,0c0,0-10.58,13.49-2.2,20.08a12.51,12.51,0,0,1,2-15.4s7.35,6.84,1.24,17Zm-1.56.83s-7.22-9.35-21.94.49c0,0,13.4,10.79,20.27,2.71A12.92,12.92,0,0,1,32.29,23.2s7.06-7,17.16-.73Zm1.16,2.72s7.75,8.9,21.87-1.87c0,0-14-9.95-20.4-1.46A12.93,12.93,0,0,1,67.8,23.33s-6.71,7.53-17.19,1.86Z"/></svg>