<svg id="Capa_1" data-name="Capa 1" xmlns="http://www.w3.org/2000/svg" width="160" height="96" viewBox="0 0 160 96"><defs><style>.cls-1{fill:#087182;}.cls-2{fill:#6acddb;}.cls-3{fill:#0088ad;}</style></defs><path class="cls-1" d="M0,49.46l.05-.17a21.36,21.36,0,0,0,5.12,0l0,.17s-1.27.46-.84,1.39l7.48,17.24,4.67-10.9s.86-1.82,2.56-6.36c0,0,.47-.88-.83-1.38v-.16a10,10,0,0,0,3.63,0v.16A2.67,2.67,0,0,0,20.31,51s-4.77,10.08-9.13,20.49h-.43s-2.65-6.2-3.37-7.79c0,0-3-6.88-3.5-7.84l-2-4.35S1.07,49.78,0,49.46Z"/><path class="cls-1" d="M38.18,68.9S36,64.42,33.77,59.25c0,0-3.62-8.37-4.27-10h-.42S24.44,60.21,23.4,62.37c0,0-2.33,5.27-3.33,7.15,0,0-.76,1.55-1.73,1.8l.06.14a13.21,13.21,0,0,1,3.58,0l0-.14s-1-.43-.91-1.2c0,0,.51-1.43,1-2.6l1.29-3.1h10.1S35,67.66,35.89,70c0,0,.4.78-.82,1.34l0,.14a29,29,0,0,1,5.13,0l.05-.14S39.24,71.13,38.18,68.9ZM23.76,63.51l4.65-10.83,4.7,10.87Z"/><path class="cls-1" d="M41.85,49.44l0-.18a14.71,14.71,0,0,0,3.3.16s9,11,15.1,18.34c0,0-.13-1.92-.15-7,0,0,0-5.17-.18-9A5.35,5.35,0,0,0,59.66,50a1.32,1.32,0,0,0-.74-.59l0-.18a6.74,6.74,0,0,0,3.16,0l0,.18a1.34,1.34,0,0,0-.85,1,9.87,9.87,0,0,0-.18,2.17s-.16,4.71-.13,10.2c0,0,0,7.78,0,9.23h-.56L43.77,51.61l.08,6.93v3.57l0,3.26L44,67.69l.13,2.21a1.63,1.63,0,0,0,.95,1.41l0,.16a8.39,8.39,0,0,0-3.11,0l0-.14a1.55,1.55,0,0,0,1-1.43s.09-1.3.12-2.29L43,63.73V53.32a19.62,19.62,0,0,0-.15-2.83A1.59,1.59,0,0,0,41.85,49.44Z"/><path class="cls-1" d="M67.24,50.61a1.45,1.45,0,0,0-.94-1.15v-.17s.36.2,3.31.14a4.4,4.4,0,0,0,1.11-.14l0,.16a1.43,1.43,0,0,0-1,1.11s-.08,1.08-.09,2.59v9.63l0,5.09a18,18,0,0,0,.14,2.54,1.51,1.51,0,0,0,.86.89l0,.16a16.24,16.24,0,0,0-4.37,0l0-.14a1.65,1.65,0,0,0,1-1.41l.07-2.25v-13S67.32,51.34,67.24,50.61Z"/><path class="cls-1" d="M92.43,56.29a8.76,8.76,0,0,0-2.65-4.22c-2.79-2.57-7.89-2.75-7.89-2.75-2.14-.12-6.49.11-6.49.11v.14c.8,0,.89.89.89.89.1.32.1,2.91.1,2.91V66.19l0,2.75a11,11,0,0,1-.08,1.4,1,1,0,0,1-.89.86v.16c3.38.17,6.13.08,6.13.08a13.6,13.6,0,0,0,6-1.52,9.45,9.45,0,0,0,4.91-6.29A13.79,13.79,0,0,0,92.43,56.29ZM89.3,65.67s-1.66,5.59-10.43,5l-.08-10.74.08-9.82s6.41-.69,9.3,3.14c0,0,2,1.89,2.09,6.46A13.46,13.46,0,0,1,89.3,65.67Z"/><path class="cls-1" d="M118.25,55.85c-3-7-10.29-6.56-10.29-6.56a10.72,10.72,0,0,0-10.32,6.64,12.27,12.27,0,0,0,0,8.89,10.87,10.87,0,0,0,10.28,6.64c8.23-.06,10.33-6.64,10.33-6.64A11.3,11.3,0,0,0,118.25,55.85Zm-2.54,9a8.51,8.51,0,0,1-7.79,5.71s-5.31.27-7.72-5.63a13.87,13.87,0,0,1,.18-9.58s2.1-5,7.54-5.08c0,0,5.3-.39,7.79,5.61A13.07,13.07,0,0,1,115.71,64.82Z"/><path class="cls-1" d="M157.92,68.9s-2.17-4.48-4.42-9.65c0,0-3.62-8.37-4.27-10h-.42s-4.64,10.92-5.68,13.08c0,0-2.33,5.27-3.33,7.15,0,0-.76,1.55-1.73,1.8l.07.14a13.12,13.12,0,0,1,3.57,0l0-.14s-1-.43-.91-1.2c0,0,.51-1.43,1-2.6l1.29-3.1h10.1s1.5,3.24,2.39,5.56c0,0,.39.78-.83,1.34l0,.14a29,29,0,0,1,5.13,0l.05-.14S159,71.13,157.92,68.9Zm-14.43-5.39,4.65-10.83,4.7,10.87Z"/><path class="cls-1" d="M135.6,53.74l.13-.14-.26-2.66a6.14,6.14,0,0,0-3-1.45,10,10,0,0,0-4,0,5.79,5.79,0,0,0-3.42,2.14,5.26,5.26,0,0,0-1,2.73,4.77,4.77,0,0,0,.94,3.48s.73,1.15,3.42,2.31c0,0,2.88,1.27,3.8,1.83a5.14,5.14,0,0,1,2.5,3.14,4.83,4.83,0,0,1-.77,3.6,4.57,4.57,0,0,1-3.62,1.81,6.2,6.2,0,0,1-4-1.27,8.68,8.68,0,0,1-2.56-3.12l-.25.13.52,3.09a9,9,0,0,0,6.27,2.1,7.66,7.66,0,0,0,5.12-2.21A5.64,5.64,0,0,0,137,65.48a5.92,5.92,0,0,0-1.82-4.6s-1-1.13-4.26-2.37a17.55,17.55,0,0,1-3.63-1.94,3.5,3.5,0,0,1-.82-4.43s1-2.18,4.39-1.86A5.59,5.59,0,0,1,135.6,53.74Z"/><path class="cls-2" d="M67.91,29.57S54.48,28.64,54.72,8.41c0,0,18.66,5.86,15.21,17.53,0,0-.47-11-12-13.22C57.93,12.72,55.61,24,67.91,29.57Zm23.61-.3S105,28.34,104.71,8.11c0,0-18.66,5.86-15.22,17.54,0,0,.48-11,12-13.23C101.5,12.42,103.82,23.67,91.52,29.27Zm-9.89,6S96.44,23.24,79.88,0c0,0-16.89,22-3.51,32.73,0,0-8.26-13.07,3.26-25.12C79.63,7.61,91.37,18.75,81.63,35.28Zm-2.5,1.33s-11.55-15.23-35.07.81c0,0,21.41,17.6,32.4,4.41,0,0-13.2,8-24.85-3.95C51.61,37.88,63,26.36,79.13,36.61ZM81,41.07s12.46,14.49,35-3c0,0-22.45-16.24-32.61-2.4,0,0,12.69-8.77,25,2.41C108.38,38.1,97.73,50.3,81,41.07Z"/><path class="cls-3" d="M31.45,85s0-.16-.35-.17a8.7,8.7,0,0,0-3.07.62,6.17,6.17,0,0,0-2.33,1.66,2,2,0,0,0-.05,2.25s.73,1.24,3.09,1.32a12.9,12.9,0,0,0,2.71-.2A15.11,15.11,0,0,0,35,89.37a13.67,13.67,0,0,0,3.36-2.17,8,8,0,0,0,2-2.87s.69-1.81-.44-2.78A4,4,0,0,0,37,80.83a20.32,20.32,0,0,0-3,.37,9.92,9.92,0,0,1-3.48.11s-1.05-.18-.75-1.54c0,0,.1-1.29,2.83-2.94a17.65,17.65,0,0,1,6-2.09s2.79-.42,4.19.53a1,1,0,0,1,.45,1.15s-.17,1.22-2.83,1.84c0,0-.41.08-.39.23s0,.25.75.12a5.11,5.11,0,0,0,2.13-.92,2.16,2.16,0,0,0,.89-1.6s.13-1.15-1.81-1.83a9.07,9.07,0,0,0-3.1-.26,15.24,15.24,0,0,0-4,.86,14.18,14.18,0,0,0-4.24,2.38s-1.82,1.4-1.7,3.08c0,0,0,1.65,2.71,1.72a21.28,21.28,0,0,0,3.49-.21,10.69,10.69,0,0,1,4,.23s1.34.34.56,2.45c0,0-.55,2-4.31,3.83a15.29,15.29,0,0,1-5.69,1.44s-2.3.16-3.39-.73c0,0-1-.8.14-2,0,0,1.16-1.29,4.61-1.74C31.08,85.26,31.45,85.19,31.45,85Z"/><path class="cls-3" d="M59.76,85.4a.17.17,0,0,0-.25,0,11.6,11.6,0,0,1-1.2,1.68c-1.94,2.34-2.81,1.34-2.81,1.34-.6-.76.1-2.26.1-2.26a15.86,15.86,0,0,0,2.14-3c.54-1,.21-1.16.21-1.16-.38-.22-1.18.87-1.18.87a2.53,2.53,0,0,0-2-.9c-2.38.11-3.89,2.47-3.89,2.47l-.58,1a11.37,11.37,0,0,1-1.18,1.66A5.13,5.13,0,0,1,44.59,89a5.76,5.76,0,0,0,2.09-1.43,5.31,5.31,0,0,0,1.53-3.41C48.4,81.78,46.78,82,46.78,82c-1.06.11-2.88,2.19-2.88,2.19l1.12-2c.91-1.29.82-1.5.82-1.5-.05-.74-.65-.3-.65-.3a17.62,17.62,0,0,0-1.79,2.47c-1.23,2-2.15,3.88-2.15,3.88l-1.17,2.51L39,91.11a10.74,10.74,0,0,0-1.31,3.31c-.15.71.12.77.12.77.39.12.75-.49.75-.49a14.11,14.11,0,0,0,1.3-3.08c.41-1.34,1.14-3,1.14-3l2-2.67c2.66-3.3,3.45-3.28,3.45-3.28,1.35-.34.77,2.06.77,2.06a5.16,5.16,0,0,1-3.28,4L43.15,88c-.37-.44-.63-.42-.63-.42-.57.08-.42.68-.42.68.37,1.19,2.7,1.22,2.7,1.22a5.56,5.56,0,0,0,5.13-2.61c-.14,2.91,1.94,2.51,1.94,2.51,1.35-.18,2.66-2.07,2.66-2.07A1.87,1.87,0,0,0,55,88.82c.84.79,2,0,2,0a7.58,7.58,0,0,0,2.86-3.19A.22.22,0,0,0,59.76,85.4Zm-4.92.84a16.49,16.49,0,0,1-1.2,1.49C52.77,88.84,52,88.86,52,88.86c-1.26.21-1.15-1.56-1.15-1.56a5.77,5.77,0,0,1,3-4.74c2-.74,2.38,1,2.38,1A14.82,14.82,0,0,0,54.84,86.24Z"/><path class="cls-3" d="M72.51,85.09s-.13-.06-.25.11a12.1,12.1,0,0,1-4.72,4.41,19.4,19.4,0,0,1,.71-2.9s2.71-3.16,3.08-4.6c0,0,.13-.48-.34-.31,0,0-1.62,1.06-3.25,4.93,0,0-1.62,2.22-2.8,1.59,0,0-1-.54.13-2.87a14.69,14.69,0,0,1,1.65-2.37s.43-.47.13-.74c0,0-.3-.26-.77.13a11.44,11.44,0,0,0-2.24,3.82s-.62,1.88.76,2.45c0,0,1.24.66,2.82-1.1L66.65,90a25.32,25.32,0,0,1-3.25,1.21,5.59,5.59,0,0,0-2.1,1.24,2,2,0,0,0,.07,2.43,2.91,2.91,0,0,0,3.57.4,3.44,3.44,0,0,0,1.39-1.46,13.25,13.25,0,0,0,1.08-3.72,12.32,12.32,0,0,0,3-2,10.58,10.58,0,0,0,2.16-2.77S72.67,85.17,72.51,85.09ZM65.77,93c-.9,2.8-2.77,2.36-2.77,2.36-2.12-.36-1.16-2.47-1.16-2.47a3.34,3.34,0,0,1,1.6-1.18c2.71-.93,3-1.11,3-1.11A22.64,22.64,0,0,1,65.77,93Z"/><path class="cls-3" d="M95.57,76.34c-.49-3.5-7-2.21-7-2.21A18.48,18.48,0,0,0,78.72,80c-3.92,4.73-3.33,8.21-3.33,8.21.64,3.22,3.36,2.35,3.36,2.35,2.64-.56,6.74-7,6.74-7,.94.32,1.8.57,1.8.57a9.76,9.76,0,0,1,1.92.74c2.39,1.4.54,3.53.54,3.53a6.85,6.85,0,0,1-4.52,2.11c-2.39.08-2.44-.76-2.44-.76,0-.36.38-.65.38-.65a6.17,6.17,0,0,1,2.34-.74c.19-.06.17-.17.17-.17S85.5,88,85.5,88a4.56,4.56,0,0,0-2.57.76c-1.55,1.32.4,1.91.4,1.91a7.92,7.92,0,0,0,4.39-.23c3.49-1.33,3.69-3.21,3.69-3.21.61-2.37-2.1-3.11-2.1-3.11l-3.53-1L87,81.37a21.44,21.44,0,0,0,5.2-1.14C96.07,78.85,95.57,76.34,95.57,76.34ZM84.86,82.8a1.63,1.63,0,0,1-.42-.31s-.23-.27,0-.48a2.65,2.65,0,0,1,1.22-.38Zm9.4-5s-.63,2-6.91,3.06l1.35-2s.2-.28.5-.77c0,0,.21-.28,0-.46,0,0-.15-.15-.44,0,0,0-.66.33-2.77,3.51,0,0-2,.32-2.11,1,0,0-.13.57.75,1a35.11,35.11,0,0,1-4.55,6s-1.59,1.71-3.11.78c0,0-1.26-.71-.9-3,0,0,.52-5.48,7-9.9,0,0,5.62-4,10.18-2.38C93.22,74.62,95.54,75.26,94.26,77.81Z"/><path class="cls-3" d="M134.6,85.4a.16.16,0,0,0-.25,0,13.32,13.32,0,0,1-1.16,1.62,4.65,4.65,0,0,1-1.59,1.4c-1,.44-1.27,0-1.27,0-.56-.7.13-2.26.13-2.26,2.35-2.79,2.42-3.76,2.42-3.76.08-.6-.34-.4-.34-.4a3.26,3.26,0,0,0-.93.88,2.57,2.57,0,0,0-2.24-.9c-3,.51-4.28,3.62-4.28,3.62a11.82,11.82,0,0,1-4,3.91,3.45,3.45,0,0,0-.75-1.85,5.17,5.17,0,0,0,2.22-2.63c.4-1-.09-1.43-.09-1.43a2.49,2.49,0,0,0-1.1-.53,3.74,3.74,0,0,1-1.25-.43,3.08,3.08,0,0,0,.33-1.26c0-.37-.23-.44-.23-.44-.4-.13-.74.41-.74.41a1.08,1.08,0,0,0,.15,1.52,23.45,23.45,0,0,1-1.74,2.93c-1.72,3-3.91,3.09-3.91,3.09-3.5.42-2.82-2.71-2.82-2.71a4.43,4.43,0,0,0,2.57.14,3.78,3.78,0,0,0,2.81-2.1c.7-1.69-.63-2.11-.63-2.11a4.07,4.07,0,0,0-2.86.41,5.6,5.6,0,0,0-2.69,3,8.92,8.92,0,0,1-2,2.44c-1.33,1-1.91.4-1.91.4-.84-1.08.89-3.94.89-3.94A42.58,42.58,0,0,0,110,80.84c2.32-3.45,2.52-4.5,2.52-4.5.1-.31,0-.37,0-.37-.16-.11-.41.11-.41.11-1.42,1.21-4.52,6.31-4.52,6.31a31,31,0,0,0-1.61,3c-1.73,2.73-2.8,3-2.8,3-1.37.6-1.42-.41-1.42-.41-.28-1.43,1.12-3.62,1.12-3.62a51.76,51.76,0,0,0,3.71-5.21c1.47-2.31,1.5-3,1.5-3,0-.2-.07-.25-.07-.25a.32.32,0,0,0-.29.06,25.48,25.48,0,0,0-3.15,4c-1.14,1.78-1.61,2.55-1.61,2.55a16.39,16.39,0,0,0-1.45,2.79,9.28,9.28,0,0,1-1.83,2.33c-2.3,2.08-4.22.93-4.22.93a2.27,2.27,0,0,1-1-2.46,4.65,4.65,0,0,0,2.62.12,4,4,0,0,0,2.68-1.9c.74-1.47-.16-2.08-.16-2.08-1.27-.87-3.2.16-3.2.16a5.5,5.5,0,0,0-2.9,3.67,2.54,2.54,0,0,0,1.6,3,4.57,4.57,0,0,0,3.47-.2A8.41,8.41,0,0,0,101,86.77c-.5,2.67,1.45,2.37,1.45,2.37,1.62-.23,3-2.21,3-2.21-.32,2.74,1.7,2.17,1.7,2.17,1.57-.3,3-2.4,3-2.4,0,2.77,2.9,2.73,2.9,2.73a4.09,4.09,0,0,0,3.1-1c.13,0,.32-.14.32-.14a11.11,11.11,0,0,0,1.69-2,26.27,26.27,0,0,0,1.83-3.14c.17.08,1,.35,1,.35.92.28.82.82.82.82A4.64,4.64,0,0,1,120,87.42a1.34,1.34,0,0,0-1.43-.2.32.32,0,0,0-.07.57c.36.36,1.27.13,1.27.13a4.37,4.37,0,0,1,.43,2.11c-.31.19-2.16,1-2.16,1a19.59,19.59,0,0,0-1.86.87c-1.82,1-1.65,2.32-1.65,2.32.24,1.91,2.39,1.79,2.39,1.79,2.35-.18,3.46-2.62,3.46-2.62a7.25,7.25,0,0,0,.74-3.36,11.52,11.52,0,0,0,3.69-3.2c-.19,2.32,1.34,2.5,1.34,2.5,1.56.37,3.24-2,3.24-2-.11,2.28,1.7,1.84,1.7,1.84,2.24-.63,3.61-3.45,3.61-3.45A.22.22,0,0,0,134.6,85.4ZM113.28,83a3.23,3.23,0,0,1,1.93-.6.73.73,0,0,1,.71.79,2.35,2.35,0,0,1-1.11,1.92,4.14,4.14,0,0,1-3.6.71A5.2,5.2,0,0,1,113.28,83ZM96.6,83a3.24,3.24,0,0,1,1.94-.6.72.72,0,0,1,.7.79,2.36,2.36,0,0,1-1.1,1.92,4.16,4.16,0,0,1-3.6.71A5.18,5.18,0,0,1,96.6,83Zm21.92,11.8a2.09,2.09,0,0,1-2.73.57c-1-.83-.3-2.24-.3-2.24a4.08,4.08,0,0,1,2-1.45c2.13-.88,2.66-1.16,2.66-1.16A6.67,6.67,0,0,1,118.52,94.81Zm11.19-8.63a11.06,11.06,0,0,1-2.37,2.52s-1.45.78-1.64-1a5,5,0,0,1,1-3.3,5.41,5.41,0,0,1,2.36-2,1.59,1.59,0,0,1,2.07,1.1A15.33,15.33,0,0,0,129.71,86.18Z"/></svg>