<svg id="Capa_1" data-name="Capa 1" xmlns="http://www.w3.org/2000/svg" width="180" height="106" viewBox="0 0 180 106"><defs><style>.cls-1{fill:#087182;}.cls-2{fill:#6acddb;}.cls-3{fill:#0088ad;}</style></defs><path class="cls-1" d="M0,54.61l.06-.19a23.67,23.67,0,0,0,5.75,0l0,.19s-1.43.51-.94,1.53l8.41,19,5.25-12s1-2,2.89-7c0,0,.52-1-.94-1.52v-.18a11.18,11.18,0,0,0,4.08,0v.18a3,3,0,0,0-1.76,1.67S17.48,67.4,12.58,78.91h-.49s-3-6.85-3.79-8.61c0,0-3.42-7.59-3.94-8.65L2.15,56.84S1.21,55,0,54.61Z"/><path class="cls-1" d="M43,76.08s-2.43-5-5-10.66c0,0-4.07-9.24-4.8-11h-.48S27.5,66.48,26.33,68.87c0,0-2.62,5.82-3.75,7.89,0,0-.86,1.71-1.95,2l.08.16a14.49,14.49,0,0,1,4,0l.05-.16s-1.15-.47-1-1.32c0,0,.58-1.58,1.13-2.88l1.46-3.42H37.7s1.68,3.58,2.68,6.14c0,0,.44.86-.93,1.48l0,.16a33,33,0,0,1,5.77,0l.06-.16S44.15,78.54,43,76.08Zm-16.23-6,5.23-12,5.29,12Z"/><path class="cls-1" d="M47.08,54.59l0-.2a17,17,0,0,0,3.71.18s10.06,12.14,17,20.25c0,0-.14-2.12-.17-7.77,0,0,0-5.72-.2-9.91a5.72,5.72,0,0,0-.32-1.89,1.5,1.5,0,0,0-.83-.66l0-.2a7.57,7.57,0,0,0,3.55,0l0,.2a1.51,1.51,0,0,0-1,1.06,10.89,10.89,0,0,0-.19,2.4s-.18,5.2-.15,11.26c0,0,0,8.59.06,10.19H68L49.24,57l.1,7.65v3.94l0,3.6.08,2.57.15,2.43a1.81,1.81,0,0,0,1.07,1.56l0,.18a9.39,9.39,0,0,0-3.5,0l0-.17a1.69,1.69,0,0,0,1.08-1.57s.1-1.43.14-2.53l.07-4.27V58.87a21,21,0,0,0-.16-3.12A1.76,1.76,0,0,0,47.08,54.59Z"/><path class="cls-1" d="M75.64,55.89a1.6,1.6,0,0,0-1-1.28v-.19s.41.23,3.72.15a4.72,4.72,0,0,0,1.25-.15l0,.18a1.59,1.59,0,0,0-1.06,1.22s-.1,1.19-.11,2.86V69.32l0,5.62a17.93,17.93,0,0,0,.17,2.81,1.66,1.66,0,0,0,1,1l0,.18a18.37,18.37,0,0,0-4.92,0l0-.16a1.81,1.81,0,0,0,1.06-1.56l.08-2.48,0-3.36v-11S75.73,56.69,75.64,55.89Z"/><path class="cls-1" d="M104,62.16a9.59,9.59,0,0,0-3-4.66c-3.14-2.85-8.87-3-8.87-3-2.41-.13-7.31.11-7.31.11v.17c.9,0,1,1,1,1,.1.35.11,3.21.11,3.21V73.08l0,3a14.61,14.61,0,0,1-.09,1.55,1.12,1.12,0,0,1-1,.94v.18c3.8.19,6.89.1,6.89.1a15.52,15.52,0,0,0,6.75-1.69A10.42,10.42,0,0,0,104,70.26,14.92,14.92,0,0,0,104,62.16Zm-3.51,10.35S98.6,78.68,88.73,78l-.09-11.86.09-10.84s7.21-.77,10.46,3.47c0,0,2.23,2.08,2.35,7.12A14.69,14.69,0,0,1,100.47,72.51Z"/><path class="cls-1" d="M133,61.67c-3.32-7.73-11.57-7.24-11.57-7.24-9,0-11.62,7.32-11.62,7.32a13.38,13.38,0,0,0,0,9.83,12.29,12.29,0,0,0,11.57,7.32c9.25-.06,11.62-7.32,11.62-7.32A12.28,12.28,0,0,0,133,61.67Zm-2.86,9.91a9.52,9.52,0,0,1-8.76,6.3,9.39,9.39,0,0,1-8.68-6.22,15,15,0,0,1,.2-10.58s2.36-5.55,8.48-5.6c0,0,6-.44,8.76,6.19A14.23,14.23,0,0,1,130.17,71.58Z"/><path class="cls-1" d="M177.65,76.08s-2.43-5-5-10.66c0,0-4.06-9.24-4.79-11h-.48S162.2,66.48,161,68.87c0,0-2.62,5.82-3.75,7.89,0,0-.85,1.71-1.94,2l.07.16a14.57,14.57,0,0,1,4,0l.05-.16s-1.15-.47-1-1.32c0,0,.57-1.58,1.13-2.88L161,71.13H172.4s1.68,3.58,2.68,6.14c0,0,.44.86-.93,1.48l0,.16a33,33,0,0,1,5.77,0l.06-.16S178.85,78.54,177.65,76.08Zm-16.22-6,5.23-12,5.28,12Z"/><path class="cls-1" d="M152.55,59.34l.15-.16-.3-2.94a6.82,6.82,0,0,0-3.33-1.59,11.19,11.19,0,0,0-4.49,0A6.53,6.53,0,0,0,140.72,57a5.85,5.85,0,0,0-1.12,3,5.27,5.27,0,0,0,1.05,3.85s.83,1.26,3.86,2.55c0,0,3.24,1.4,4.27,2,0,0,2.44,1.29,2.81,3.47a5.3,5.3,0,0,1-.86,4,5.15,5.15,0,0,1-4.08,2,7.17,7.17,0,0,1-4.49-1.4A9.6,9.6,0,0,1,139.29,73l-.28.14.58,3.41a10.27,10.27,0,0,0,7,2.33,8.68,8.68,0,0,0,5.76-2.45,6.16,6.16,0,0,0,1.72-4.16,6.45,6.45,0,0,0-2-5.08S151,66,147.29,64.6a19.62,19.62,0,0,1-4.09-2.14,3.83,3.83,0,0,1-.92-4.89s1.11-2.4,4.94-2A6.27,6.27,0,0,1,152.55,59.34Z"/><path class="cls-2" d="M76.4,32.65s-15.11-1-14.84-23.37c0,0,21,6.48,17.11,19.37A16.11,16.11,0,0,0,65.17,14S62.56,26.47,76.4,32.65ZM103,32.32s15.12-1,14.85-23.37c0,0-21,6.48-17.12,19.37a16.13,16.13,0,0,1,13.51-14.61S116.8,26.14,103,32.32ZM91.83,39s16.66-13.29-2-38.95c0,0-19,24.32-4,36.14,0,0-9.3-14.44,3.67-27.74C89.59,8.4,102.8,20.71,91.83,39ZM89,40.43s-13-16.83-39.45.89c0,0,24.09,19.44,36.45,4.87,0,0-14.85,8.8-28-4.37C58.06,41.82,70.86,29.1,89,40.43Zm2.09,4.92s14,16,39.32-3.29c0,0-25.25-17.94-36.68-2.65,0,0,14.27-9.69,28.17,2.66C121.92,42.07,109.94,55.55,91.11,45.35Z"/><path class="cls-3" d="M35.39,93.85s0-.17-.4-.18a9.73,9.73,0,0,0-3.45.68,7,7,0,0,0-2.63,1.84,2.13,2.13,0,0,0-.05,2.48s.82,1.36,3.47,1.46a15,15,0,0,0,3.06-.23,16.69,16.69,0,0,0,4-1.22,15.3,15.3,0,0,0,3.79-2.4,8.76,8.76,0,0,0,2.23-3.16s.79-2-.49-3.07a4.57,4.57,0,0,0-3.3-.8,23.13,23.13,0,0,0-3.34.41,11,11,0,0,1-3.91.11s-1.19-.19-.84-1.7c0,0,.1-1.41,3.18-3.23a20,20,0,0,1,6.72-2.32s3.14-.46,4.72.59a1.14,1.14,0,0,1,.51,1.27s-.2,1.34-3.18,2c0,0-.48.08-.45.24,0,0,0,.28.85.14a5.75,5.75,0,0,0,2.39-1,2.4,2.4,0,0,0,1-1.78s.14-1.26-2-2a10,10,0,0,0-3.49-.29,17.44,17.44,0,0,0-4.47,1,15.86,15.86,0,0,0-4.78,2.63s-2,1.55-1.91,3.4c0,0,0,1.82,3,1.89a23.42,23.42,0,0,0,3.94-.22,12.16,12.16,0,0,1,4.5.25s1.51.37.62,2.7c0,0-.62,2.26-4.85,4.23a17.4,17.4,0,0,1-6.4,1.59s-2.59.18-3.81-.8c0,0-1.1-.89.16-2.26,0,0,1.3-1.44,5.18-1.93C35,94.14,35.39,94.06,35.39,93.85Z"/><path class="cls-3" d="M67.23,94.3a.19.19,0,0,0-.28,0A13.46,13.46,0,0,1,65.6,96.2c-2.19,2.59-3.17,1.49-3.17,1.49-.67-.85.13-2.5.13-2.5A17.74,17.74,0,0,0,65,91.88c.6-1.07.23-1.28.23-1.28-.43-.25-1.32,1-1.32,1a2.88,2.88,0,0,0-2.25-1c-2.68.12-4.38,2.73-4.38,2.73l-.66,1.14a11.6,11.6,0,0,1-1.33,1.83,5.85,5.85,0,0,1-5.09,2,6.34,6.34,0,0,0,2.35-1.58,5.79,5.79,0,0,0,1.72-3.76c.22-2.64-1.6-2.37-1.6-2.37-1.19.13-3.25,2.42-3.25,2.42l1.27-2.24c1-1.43.92-1.66.92-1.66-.06-.81-.74-.33-.74-.33a19.37,19.37,0,0,0-2,2.73c-1.38,2.21-2.42,4.29-2.42,4.29l-1.31,2.77-1.24,2.06a11.6,11.6,0,0,0-1.49,3.65c-.16.79.15.85.15.85.43.14.83-.53.83-.53a15.27,15.27,0,0,0,1.47-3.4c.46-1.48,1.28-3.33,1.28-3.33l2.23-3c3-3.65,3.89-3.62,3.89-3.62,1.52-.38.87,2.27.87,2.27a5.76,5.76,0,0,1-3.69,4.39l-.84-.79c-.43-.49-.71-.47-.71-.47-.65.08-.48.75-.48.75.42,1.32,3,1.34,3,1.34a6.25,6.25,0,0,0,5.77-2.87c-.15,3.21,2.19,2.77,2.19,2.77,1.51-.2,3-2.29,3-2.29a2.06,2.06,0,0,0,.47,1.7c.95.87,2.3,0,2.3,0a8.48,8.48,0,0,0,3.21-3.53A.22.22,0,0,0,67.23,94.3Zm-5.54.93a17.18,17.18,0,0,1-1.34,1.64,2.85,2.85,0,0,1-1.85,1.25c-1.42.23-1.3-1.73-1.3-1.73a6.39,6.39,0,0,1,3.44-5.23c2.22-.82,2.68,1.08,2.68,1.08A16.12,16.12,0,0,0,61.69,95.23Z"/><path class="cls-3" d="M81.58,94a.24.24,0,0,0-.29.11A13.47,13.47,0,0,1,76,98.94a21.88,21.88,0,0,1,.8-3.19s3-3.5,3.46-5.09c0,0,.15-.53-.37-.34,0,0-1.82,1.18-3.66,5.44,0,0-1.83,2.45-3.15,1.76,0,0-1.17-.6.15-3.17a16.08,16.08,0,0,1,1.85-2.62s.49-.51.15-.81c0,0-.34-.29-.86.14a12.33,12.33,0,0,0-2.52,4.21s-.7,2.08.84,2.71c0,0,1.4.73,3.17-1.21L75,99.42a30.51,30.51,0,0,1-3.65,1.34A6.33,6.33,0,0,0,69,102.13a2.21,2.21,0,0,0,.08,2.68,3.34,3.34,0,0,0,4,.44,3.86,3.86,0,0,0,1.56-1.61,14.72,14.72,0,0,0,1.22-4.12,13.77,13.77,0,0,0,3.39-2.18,11.71,11.71,0,0,0,2.42-3.06S81.75,94,81.58,94ZM74,102.67c-1,3.09-3.12,2.6-3.12,2.6-2.38-.4-1.3-2.72-1.3-2.72a3.79,3.79,0,0,1,1.8-1.31c3-1,3.43-1.23,3.43-1.23A25.76,25.76,0,0,1,74,102.67Z"/><path class="cls-3" d="M107.51,84.29c-.55-3.86-7.85-2.44-7.85-2.44a20.77,20.77,0,0,0-11.1,6.45c-4.41,5.23-3.74,9.07-3.74,9.07.72,3.55,3.78,2.59,3.78,2.59,3-.62,7.57-7.73,7.57-7.73,1.06.35,2,.63,2,.63a11.76,11.76,0,0,1,2.15.82c2.69,1.54.61,3.9.61,3.9a7.76,7.76,0,0,1-5.08,2.33c-2.69.08-2.75-.85-2.75-.85,0-.39.43-.71.43-.71a7,7,0,0,1,2.63-.82c.22-.06.19-.19.19-.19,0-.16-.21-.16-.21-.16a5.26,5.26,0,0,0-2.89.83c-1.74,1.46.46,2.12.46,2.12a9.07,9.07,0,0,0,4.93-.26c3.94-1.46,4.16-3.54,4.16-3.54.69-2.62-2.37-3.44-2.37-3.44l-4-1.08,1.36-2a25.2,25.2,0,0,0,5.84-1.26C108.08,87.06,107.51,84.29,107.51,84.29ZM95.46,91.43a1.76,1.76,0,0,1-.46-.35s-.27-.3,0-.53a3.06,3.06,0,0,1,1.37-.42ZM106,85.92s-.71,2.19-7.77,3.38l1.52-2.24s.23-.31.56-.84c0,0,.24-.32,0-.51,0,0-.17-.17-.5,0,0,0-.74.36-3.11,3.88,0,0-2.3.35-2.38,1.11,0,0-.14.63.85,1.12a38.88,38.88,0,0,1-5.13,6.58s-1.78,1.88-3.49.86c0,0-1.42-.79-1-3.31,0,0,.59-6.06,7.85-10.94,0,0,6.32-4.37,11.45-2.63C104.87,82.39,107.48,83.1,106,85.92Z"/><path class="cls-3" d="M151.43,94.29a.19.19,0,0,0-.28.06,16.11,16.11,0,0,1-1.31,1.79,5.28,5.28,0,0,1-1.79,1.55c-1.11.48-1.42,0-1.42,0-.64-.78.13-2.5.13-2.5,2.65-3.09,2.73-4.15,2.73-4.15.09-.67-.39-.44-.39-.44a3.65,3.65,0,0,0-1,1,2.92,2.92,0,0,0-2.52-1c-3.4.56-4.81,4-4.81,4a13.2,13.2,0,0,1-4.55,4.32,3.74,3.74,0,0,0-.84-2,5.79,5.79,0,0,0,2.5-2.91c.44-1.1-.1-1.58-.1-1.58a3,3,0,0,0-1.24-.59,4.48,4.48,0,0,1-1.41-.47,3.19,3.19,0,0,0,.37-1.39c0-.4-.26-.48-.26-.48-.44-.15-.83.44-.83.44a1.19,1.19,0,0,0,.17,1.69,26.12,26.12,0,0,1-2,3.23c-1.93,3.3-4.4,3.41-4.4,3.41-3.94.46-3.17-3-3.17-3a5.11,5.11,0,0,0,2.9.15A4.25,4.25,0,0,0,131.07,93c.78-1.87-.71-2.33-.71-2.33a4.68,4.68,0,0,0-3.23.45,6.21,6.21,0,0,0-3,3.35,9.91,9.91,0,0,1-2.3,2.7c-1.49,1.16-2.14.44-2.14.44-1-1.19,1-4.35,1-4.35a48.88,48.88,0,0,0,3-4c2.61-3.8,2.83-5,2.83-5,.12-.33,0-.41,0-.41-.18-.12-.46.13-.46.13-1.6,1.33-5.09,7-5.09,7a32.28,32.28,0,0,0-1.81,3.37c-2,3-3.15,3.31-3.15,3.31-1.54.66-1.6-.45-1.6-.45-.31-1.58,1.27-4,1.27-4a56.51,56.51,0,0,0,4.16-5.74c1.66-2.56,1.69-3.3,1.69-3.3,0-.22-.08-.28-.08-.28a.4.4,0,0,0-.33.07c-1.09.77-3.54,4.46-3.54,4.46l-1.81,2.82a17.45,17.45,0,0,0-1.63,3.08,10.09,10.09,0,0,1-2.06,2.57c-2.58,2.3-4.74,1-4.74,1a2.47,2.47,0,0,1-1.08-2.72,5.36,5.36,0,0,0,2.94.14,4.49,4.49,0,0,0,3-2.1c.83-1.62-.18-2.3-.18-2.3-1.43-1-3.6.18-3.6.18a6.11,6.11,0,0,0-3.27,4A2.81,2.81,0,0,0,107,98.48a5.28,5.28,0,0,0,3.9-.22,9.29,9.29,0,0,0,2.74-2.45c-.56,2.94,1.64,2.62,1.64,2.62,1.82-.25,3.35-2.45,3.35-2.45-.36,3,1.91,2.41,1.91,2.41,1.77-.34,3.34-2.66,3.34-2.66,0,3.06,3.27,3,3.27,3a4.63,4.63,0,0,0,3.48-1.14c.15,0,.36-.16.36-.16a12.58,12.58,0,0,0,1.91-2.24,29.19,29.19,0,0,0,2.05-3.47c.2.1,1.12.39,1.12.39,1,.31.92.9.92.9a5.09,5.09,0,0,1-2,3.5,1.56,1.56,0,0,0-1.61-.22.36.36,0,0,0-.08.64c.4.39,1.43.13,1.43.13a4.8,4.8,0,0,1,.48,2.34c-.34.21-2.43,1.09-2.43,1.09a21.94,21.94,0,0,0-2.09,1c-2,1.06-1.86,2.56-1.86,2.56.27,2.11,2.69,2,2.69,2,2.64-.2,3.9-2.89,3.9-2.89a7.82,7.82,0,0,0,.82-3.71,13,13,0,0,0,4.16-3.53c-.22,2.56,1.5,2.76,1.5,2.76,1.76.4,3.65-2.26,3.65-2.26-.12,2.52,1.91,2,1.91,2,2.52-.69,4.06-3.81,4.06-3.81A.23.23,0,0,0,151.43,94.29Zm-24-2.64a3.72,3.72,0,0,1,2.17-.66.82.82,0,0,1,.8.88A2.61,2.61,0,0,1,129.16,94a4.73,4.73,0,0,1-4,.78A5.73,5.73,0,0,1,127.44,91.65Zm-18.76,0a3.7,3.7,0,0,1,2.17-.67.83.83,0,0,1,.8.88A2.61,2.61,0,0,1,110.4,94a4.77,4.77,0,0,1-4.05.79A5.74,5.74,0,0,1,108.68,91.66Zm24.65,13a2.36,2.36,0,0,1-3.06.63c-1.16-.91-.35-2.47-.35-2.47a4.64,4.64,0,0,1,2.26-1.6c2.41-1,3-1.28,3-1.28A7.2,7.2,0,0,1,133.33,104.68Zm12.6-9.52s-1.74,2.37-2.68,2.78c0,0-1.63.86-1.84-1.11a5.35,5.35,0,0,1,1.13-3.63A6,6,0,0,1,145.19,91a1.8,1.8,0,0,1,2.33,1.21A16.75,16.75,0,0,0,145.93,95.16Z"/></svg>